<?xml version="1.0" encoding="utf-8"?>
<!-- Generator: Adobe Illustrator 25.1.0, SVG Export Plug-In . SVG Version: 6.00 Build 0)  -->
<svg version="1.1" id="Layer_1" xmlns="http://www.w3.org/2000/svg" xmlns:xlink="http://www.w3.org/1999/xlink" x="0px" y="0px"
	 viewBox="0 0 300 300" style="enable-background:new 0 0 300 300;" xml:space="preserve">
<style type="text/css">
	.st0{fill:#FFFFFF;}
</style>
<g>
	<g>
		<path class="st0" d="M274.4,159.9c0,36.3-10,63.7-30.5,86.9c-25.8,29.2-58.6,43.5-97.8,42.6c-23.9-0.5-45.7-7.7-65.4-21
			c-18.8-12.7-33.2-29.3-42.9-50c-13.5-28.7-15.5-58.4-6.9-88.7c5.8-20.5,16.7-38.2,32-53.1c7.1-7,18.7-6.7,25.9,0.2
			c7.6,7.4,8.3,18.6,1.2,26.4c-8.9,9.6-16.3,20.1-20.7,32.5c-5.3,14.9-6.6,30-3.7,45.5c3.3,17.4,11.2,32.3,23.6,44.7
			c13.3,13.4,29.4,22,48.2,24.3c36,4.5,64.6-8.4,85.1-38.2c20.6-30.1,18.2-72.6-5-100.7c-2.2-2.7-4.6-5.3-7-8
			c-6.9-7.9-6.3-19.5,1.3-26.8c7.3-7,18.8-6.9,26.2,0.5C262,101.5,274,130.9,274.4,159.9z"/>
		<path class="st0" d="M131,77.5c0-15.9-0.1-31.8,0-47.7c0-7.8,3.7-13.6,10.6-17.1c6.8-3.5,13.5-2.7,19.7,1.7
			c4.1,2.9,6.6,6.8,7.3,11.8c0.3,1.9,0.4,3.9,0.4,5.8c0,30.4,0,60.9,0,91.3c0,6.7-1.6,12.6-7.1,16.9c-6,4.8-12.8,5.6-19.7,2.6
			c-7.2-3.1-11.3-9-11.3-16.9C130.9,109.8,131,93.7,131,77.5L131,77.5z"/>
	</g>
</g>
</svg>
