<?xml version="1.0" encoding="utf-8"?>
<svg version="1.1" id="Layer_1" xmlns="http://www.w3.org/2000/svg" xmlns:xlink="http://www.w3.org/1999/xlink" x="0px" y="0px"
	 viewBox="0 0 300 300" style="enable-background:new 0 0 300 300;" xml:space="preserve">
<style type="text/css">
	.st0{fill:#FFFFFF;}
</style>
<g>
	<ellipse transform="matrix(0.9732 -0.2298 0.2298 0.9732 -2.1771 52.504)" class="st0" cx="224.4" cy="35.6" rx="28.1" ry="28.1"/>
	<path class="st0" d="M126.2,261.3c-31.1,0-56.2-25.2-56.2-56.2c0-13.7,4.9-26.2,13-35.9l-21.5-22.8c-14.1,15.5-22.7,36.1-22.7,58.8
		c0,48.3,39.1,87.4,87.4,87.4c20.7,0,39.7-7.2,54.7-19.2l-21.5-22.8C150.1,257.3,138.6,261.3,126.2,261.3z"/>
	<path class="st0" d="M246.6,130L246.6,130c-0.8-0.1-1.6-0.1-2.4,0c-0.1,0-0.2,0-0.2,0l-60,2.5c-0.1,0-0.2,0-0.2,0l32.6-36.8
		c8.9-10,6.2-25.7-5.6-32.2L190,52.2c-0.7-0.6-1.5-1.1-2.4-1.5l-8.3-4.3l0,0l0,0L140,25.8c-1.6-0.8-3.3-1.4-5-1.6
		c-4.5-0.9-9.4,0-13.3,3.1L81.8,58.8c0,0-0.1,0.1-0.1,0.1c-0.2,0.2-0.5,0.4-0.7,0.6c-0.2,0.2-0.4,0.3-0.5,0.5
		c-0.2,0.2-0.3,0.4-0.5,0.5c-0.2,0.2-0.4,0.4-0.6,0.6c-0.1,0.1-0.2,0.3-0.3,0.5c-0.2,0.3-0.4,0.5-0.6,0.8c-0.1,0.2-0.2,0.3-0.3,0.5
		c-0.2,0.3-0.4,0.6-0.5,0.8c-0.1,0.2-0.2,0.5-0.4,0.7c-0.1,0.2-0.2,0.4-0.3,0.6c-0.1,0.3-0.3,0.7-0.4,1c0,0.1-0.1,0.3-0.2,0.4
		c-0.1,0.3-0.2,0.7-0.3,1c0,0.2-0.1,0.3-0.1,0.5c-0.1,0.3-0.1,0.6-0.1,0.9c0,0.2-0.1,0.5-0.1,0.7c0,0.2,0,0.5-0.1,0.7
		c0,0.3,0,0.6,0,0.9c0,0.1,0,0.1,0,0.2c0,0.2,0,0.3,0,0.5c0,0.3,0,0.6,0,0.9c0,0.2,0.1,0.5,0.1,0.7c0,0.3,0.1,0.6,0.1,0.8
		c0,0.3,0.1,0.5,0.2,0.8c0.1,0.3,0.1,0.5,0.2,0.8c0.1,0.3,0.2,0.5,0.3,0.8c0.1,0.2,0.2,0.5,0.3,0.7c0.1,0.3,0.2,0.5,0.3,0.8
		c0.1,0.2,0.2,0.4,0.3,0.6c0.1,0.3,0.3,0.5,0.5,0.8c0.1,0.2,0.2,0.4,0.3,0.6c0.2,0.3,0.4,0.5,0.6,0.8c0.1,0.1,0.2,0.3,0.3,0.4
		c0,0,0.1,0.1,0.1,0.1c0.2,0.3,0.4,0.5,0.6,0.7c0.1,0.2,0.3,0.3,0.4,0.5c0.2,0.2,0.4,0.4,0.6,0.6c0.2,0.2,0.4,0.4,0.6,0.5
		c0.2,0.1,0.4,0.3,0.5,0.4c0.2,0.2,0.5,0.4,0.7,0.5c0.2,0.1,0.4,0.2,0.6,0.4c0.2,0.2,0.5,0.3,0.7,0.4c0.3,0.2,0.6,0.3,0.9,0.4
		c0.2,0.1,0.3,0.2,0.5,0.3c0.4,0.2,0.7,0.3,1.1,0.4c0.1,0,0.2,0.1,0.3,0.1c0.3,0.1,0.7,0.2,1.1,0.3c0.1,0,0.3,0.1,0.4,0.1
		c0.3,0.1,0.6,0.1,0.9,0.1c0.2,0,0.4,0.1,0.7,0.1c0.2,0,0.5,0,0.7,0.1c0.3,0,0.6,0,0.9,0c0.1,0,0.1,0,0.2,0c0.2,0,0.3,0,0.5,0
		c0.3,0,0.6,0,0.9,0c0.2,0,0.5-0.1,0.7-0.1c0.3,0,0.6-0.1,0.8-0.1c0.3,0,0.5-0.1,0.7-0.2c0.3-0.1,0.5-0.1,0.8-0.2
		c0.3-0.1,0.5-0.2,0.8-0.3c0.2-0.1,0.5-0.2,0.7-0.3c0.3-0.1,0.5-0.2,0.8-0.3c0.2-0.1,0.4-0.2,0.7-0.3c0.3-0.1,0.5-0.3,0.8-0.4
		c0.2-0.1,0.4-0.2,0.6-0.4c0.3-0.2,0.5-0.4,0.8-0.6c0.1-0.1,0.3-0.2,0.4-0.3l32-25.2L157,70.9l-43.5,47.7
		c-15.7,2.3-30.1,8.8-41.9,18.3L93,159.7c9.3-6.8,20.8-10.9,33.2-10.9c31.1,0,56.2,25.2,56.2,56.2c0,13.7-4.9,26.2-13,35.9
		l21.5,22.8c14.1-15.5,22.7-36.1,22.7-58.8c0-14.9-3.7-28.9-10.3-41.2l24.2-1l-6.2,67.6c-0.8,8.8,5.7,16.7,14.5,17.5h0
		c8.8,0.8,16.7-5.7,17.5-14.5l7.9-85.9C261.9,138.7,255.4,130.9,246.6,130z"/>
</g>
</svg>
